<?xml version="1.0" encoding="UTF-8"?><svg id="uuid-2f038d90-060c-4068-8b1c-2c4547dd14c2" xmlns="http://www.w3.org/2000/svg" width="120.66mm" height="26.94mm" viewBox="0 0 342.03 76.38"><defs><style>.uuid-380eeedd-4cd1-4117-9411-05dc49ebcfda{fill:#3899a3;}.uuid-380eeedd-4cd1-4117-9411-05dc49ebcfda,.uuid-ee62194e-3678-4b00-af3e-e2908f49ac01{fill-rule:evenodd;}.uuid-ee62194e-3678-4b00-af3e-e2908f49ac01{fill:#254c49;}</style></defs><g id="uuid-7e2f772f-cd6c-4feb-ad54-427ac64a766a"><path class="uuid-ee62194e-3678-4b00-af3e-e2908f49ac01" d="M17.22,24.76c10.79,0,15.04,3.88,15.04,14.1v14.29h-8.04v-14.29c0-4.97-1.89-7.24-7.1-7.24h-3.31v14.14c0,5.34-3.31,7.66-7.28,7.66-2.03,0-5.11-.38-6.53-.9l1.04-6.34c.71.19,1.61.43,2.84.43,1.51,0,1.99-.8,1.99-3.22v-11.78h-3.31v-6.86h14.66Z"/><path class="uuid-ee62194e-3678-4b00-af3e-e2908f49ac01" d="M46.36,24.76v28.38h-8.04v-28.38h8.04Z"/><path class="uuid-ee62194e-3678-4b00-af3e-e2908f49ac01" d="M59.37,24.76h16.98v.71l-9.84,27.67h-8.56v-.28l7.76-21.24h-14.38v-11.59h8.04v4.73Z"/><path class="uuid-ee62194e-3678-4b00-af3e-e2908f49ac01" d="M80.37,24.76h11.59c10.6,0,15.28,4.64,15.28,15.33v13.06h-8.04v-13.06c0-6.05-2.03-8.47-7.24-8.47h-11.59v-6.86ZM80.61,38.43l8.04-1.04v15.75h-8.04v-14.71Z"/><path class="uuid-ee62194e-3678-4b00-af3e-e2908f49ac01" d="M137.18,52.58v.57h-25.5v-6.86h12.3l-14.71-21.29v-.24h8.85l8.09,11.78c2.27-1.66,3.22-5.11,2.98-11.78h7.76c.28,9.84-1.8,14.85-6.91,17.36l7.14,10.45Z"/><path class="uuid-ee62194e-3678-4b00-af3e-e2908f49ac01" d="M173.42,38.81c0,11.97-7.43,17.41-18.16,13.24l1.75-6.53c6.01,2.65,8.85.09,8.85-6.72,0-4.82-2.41-7.38-5.49-7.38-2.89,0-5.2,2.03-7.1,9.08l-3.41,12.63h-7.95l3.64-12.91-5.3-15.47h7.9l1.8,6.01c2.18-4.3,5.91-6.43,10.03-6.43,8.09,0,13.43,5.96,13.43,14.47Z"/><path class="uuid-ee62194e-3678-4b00-af3e-e2908f49ac01" d="M193.82,24.76h16.98v.71l-9.84,27.67h-8.56v-.28l7.76-21.24h-14.38v-11.59h8.04v4.73Z"/><path class="uuid-ee62194e-3678-4b00-af3e-e2908f49ac01" d="M223.01,24.76v28.38h-8.04v-28.38h8.04Z"/><path class="uuid-ee62194e-3678-4b00-af3e-e2908f49ac01" d="M229.2,24.76h27.34v16.13c0,10.08-5.16,12.58-10.64,12.58-2.13,0-3.83-.24-5.68-.8l.9-6.62c1.18.33,2.37.57,3.64.57,2.7,0,4.02-.99,4.02-6.48v-8.51h-19.58v-6.86ZM237.2,36.68v23.56h-7.76v-22.61l7.76-.95Z"/><path class="uuid-ee62194e-3678-4b00-af3e-e2908f49ac01" d="M51.81,62.94c3.5,0,5.03,1.42,5.03,4.73v5.78h-10.04v-10.51h5.01ZM48.83,71.72h5.97v-3.89c0-2.21-.93-3.15-3.01-3.15h-2.96v7.04Z"/><path class="uuid-ee62194e-3678-4b00-af3e-e2908f49ac01" d="M58.99,62.94h2.03v5.94l-2.03.33v-6.27Z"/><path class="uuid-ee62194e-3678-4b00-af3e-e2908f49ac01" d="M71.8,68.2c0,3.31-2.05,5.43-5.25,5.43-1.42,0-2.59-.37-3.64-1.07l.65-1.42c.77.46,1.65.81,2.75.81,2.14,0,3.47-1.49,3.47-3.75s-1.33-3.75-3.47-3.75c-1.1,0-1.98.35-2.75.82l-.65-1.44c1.05-.7,2.22-1.07,3.64-1.07,3.21,0,5.25,2.12,5.25,5.43Z"/><path class="uuid-ee62194e-3678-4b00-af3e-e2908f49ac01" d="M75.98,62.94v10.51h-2.03v-10.51h2.03Z"/><path class="uuid-ee62194e-3678-4b00-af3e-e2908f49ac01" d="M78.05,62.94h9.83v1.73c-1.58,0-2.35.93-2.35,2.8v5.97h-2.03v-5.92c0-1.44.47-2.33,1.23-2.86h-6.67v-1.73Z"/><path class="uuid-ee62194e-3678-4b00-af3e-e2908f49ac01" d="M89.86,62.94h2.03v5.94l-2.03.33v-6.27Z"/><path class="uuid-ee62194e-3678-4b00-af3e-e2908f49ac01" d="M104.52,62.94h2.03v4.66c0,3.8-2.29,6.06-6.15,6.06s-6.13-2.26-6.13-6.06v-4.66h2.03v4.73c0,2.64,1.56,4.26,4.1,4.26s4.12-1.61,4.12-4.26v-4.73ZM101.42,62.94v5.96l-2.03.42v-6.38h2.03Z"/><path class="uuid-ee62194e-3678-4b00-af3e-e2908f49ac01" d="M119.18,62.94c3.5,0,5.03,1.42,5.03,4.73v5.78h-10.04v-10.51h5.01ZM116.21,71.72h5.97v-3.89c0-2.21-.93-3.15-3.01-3.15h-2.96v7.04Z"/><path class="uuid-ee62194e-3678-4b00-af3e-e2908f49ac01" d="M128.85,62.94v10.51h-2.03v-10.51h2.03Z"/><path class="uuid-ee62194e-3678-4b00-af3e-e2908f49ac01" d="M130.92,62.94h9.83v1.73c-1.58,0-2.35.93-2.35,2.8v5.97h-2.03v-5.92c0-1.44.47-2.33,1.23-2.86h-6.67v-1.73Z"/><path class="uuid-ee62194e-3678-4b00-af3e-e2908f49ac01" d="M142.73,62.94h2.03v5.94l-2.03.33v-6.27Z"/><path class="uuid-ee62194e-3678-4b00-af3e-e2908f49ac01" d="M147.21,62.94h9.79v6.04c0,3.5-1.61,4.59-3.77,4.59-.79,0-1.44-.09-2.12-.3l.23-1.68c.51.16,1.09.25,1.61.25,1.42,0,2.08-.68,2.08-3.03v-4.13h-7.83v-1.73ZM149.3,67.37v9h-1.96v-8.76l1.96-.25Z"/><path class="uuid-ee62194e-3678-4b00-af3e-e2908f49ac01" d="M161.09,62.94h6.97v.19l-3.92,10.32h-2.15v-.09l3.38-8.69h-6.31v-3.49h2.03v1.75Z"/><path class="uuid-ee62194e-3678-4b00-af3e-e2908f49ac01" d="M177.19,62.94v13.44h-2.03v-13.44h2.03Z"/><path class="uuid-ee62194e-3678-4b00-af3e-e2908f49ac01" d="M181.95,62.94v10.51h-2.03v-10.51h2.03Z"/><path class="uuid-ee62194e-3678-4b00-af3e-e2908f49ac01" d="M186.19,62.94c2.05,0,3.07.96,3.07,2.89v7.62h-1.56l-.3-2.14-.05-.02c-.54,1.4-1.54,2.15-2.91,2.15h-.74v-1.91h.74c1.88,0,2.86-1.31,2.86-2.86v-2.43c0-1.07-.47-1.58-1.47-1.58h-1.1v-1.73h1.47Z"/><path class="uuid-ee62194e-3678-4b00-af3e-e2908f49ac01" d="M199.93,73.45h-1.96v-5.34c0-2.43-1.23-3.66-3.22-3.66-1.17,0-2.17.39-3.12.88l-.68-1.44c1.44-.81,2.8-1.09,4.13-1.09,2.8,0,4.85,1.58,4.85,5.22v5.43Z"/><path class="uuid-ee62194e-3678-4b00-af3e-e2908f49ac01" d="M212.26,73.36v.09h-2.26l-4.4-5.61c-1.23.75-1.8,2.31-1.72,5.61h-2.03c-.09-4.12.84-5.97,2.7-6.95l-2.71-3.47v-.09h2.24l4.4,5.61c1.23-.74,1.82-2.29,1.73-5.61h2.03c.09,4.13-.86,5.97-2.71,6.96l2.73,3.47Z"/><path class="uuid-380eeedd-4cd1-4117-9411-05dc49ebcfda" d="M296.49,67.41c25.52,5.63,55.26-27.18,42.48-42.44-7.02-8.39-18.87-8.21-27.83-3.35,1.6.69,3.18,1.48,4.68,2.38h0c12.68-2.09,25.41,5.07,17.57,19.16-3.81,6.86-12.35,14.03-20.96,17.45-16.34,6.48-34.63-1.84-31.17-19.61,1.44-7.42,5.38-10.3,9.06-12.4,0,0-6.49,1.08-10.1,7.02-7.92,13,1.17,28.47,16.27,31.8h0ZM308.77,23.05c1.3.5,2.57,1.06,3.78,1.69h0c-.61.18-1.21.38-1.81.61-.91-.61-1.85-1.17-2.83-1.69.28-.21.57-.41.85-.6Z"/><path class="uuid-380eeedd-4cd1-4117-9411-05dc49ebcfda" d="M292.07,9.69c0-4.54-3.68-8.21-8.21-8.21s-8.21,3.68-8.21,8.21,3.68,8.21,8.21,8.21,8.21-3.68,8.21-8.21Z"/><path class="uuid-ee62194e-3678-4b00-af3e-e2908f49ac01" d="M280.32,31.81c7.47-7.42,18.69-7.59,27.68-3.84,21.34,8.9,15.98,28.15-5.19,31.76,7.07,1.1,19.06-3.54,21.82-10.13,9.71-23.18-32.85-39.25-50.27-22.21-8.79,8.61-7.34,21.13-2.03,30.54,13.46,23.85,48.68,20.93,58.93.16l-.3.27h0l-.3.26h0l-.3.26h0s-.31.26-.31.26h0s-.31.26-.31.26h0s-.31.26-.31.26h0l-.31.25h0s-.32.25-.32.25h0s-.32.25-.32.25h0s-.32.25-.32.25h0s-.32.25-.32.25h0s-.33.24-.33.24h0s-.33.24-.33.24h0s-.33.24-.33.24h0s-.33.24-.33.24h0s-.33.23-.33.23h0s-.33.23-.33.23h0s-.34.23-.34.23h0s-.34.23-.34.23h0s-.34.22-.34.22h0s-.34.22-.34.22h0s-.34.22-.34.22h0s-.34.22-.34.22h0c-36.08,22.3-60.39-15.08-43.48-31.87Z"/><path class="uuid-ee62194e-3678-4b00-af3e-e2908f49ac01" d="M340.32,8.21c0-4.53-3.68-8.21-8.21-8.21s-8.21,3.68-8.21,8.21,3.68,8.21,8.21,8.21,8.21-3.68,8.21-8.21Z"/></g></svg>