<?xml version="1.0" encoding="UTF-8"?><svg id="uuid-3196333f-3e84-42d7-826a-9c48929a8e25" xmlns="http://www.w3.org/2000/svg" width="26.1mm" height="26.37mm" viewBox="0 0 73.97 74.76"><defs><style>.uuid-dacdbce8-5f6e-4073-876a-c23f2096ae32{fill:#fff;}.uuid-dacdbce8-5f6e-4073-876a-c23f2096ae32,.uuid-ed9f3f2e-afd2-4ff6-9635-9e819bee9715{fill-rule:evenodd;}.uuid-ed9f3f2e-afd2-4ff6-9635-9e819bee9715{fill:#36a8b2;}</style></defs><g id="uuid-63ddec5c-4979-43bb-a27f-d25fff2e330d"><path class="uuid-ed9f3f2e-afd2-4ff6-9635-9e819bee9715" d="M28.43,67.41c25.52,5.63,55.26-27.18,42.48-42.44-7.02-8.39-18.87-8.21-27.83-3.35,1.6.69,3.18,1.48,4.68,2.38h0c12.68-2.09,25.41,5.07,17.57,19.16-3.81,6.86-12.35,14.03-20.96,17.45-16.34,6.48-34.63-1.84-31.17-19.61,1.44-7.42,5.38-10.3,9.06-12.4,0,0-6.49,1.08-10.1,7.02-7.92,13,1.17,28.47,16.27,31.8h0Z"/><path class="uuid-ed9f3f2e-afd2-4ff6-9635-9e819bee9715" d="M24.01,9.69c0-4.54-3.68-8.21-8.21-8.21S7.59,5.16,7.59,9.69s3.68,8.21,8.21,8.21,8.21-3.68,8.21-8.21Z"/><path class="uuid-dacdbce8-5f6e-4073-876a-c23f2096ae32" d="M12.26,31.81c7.47-7.42,18.69-7.59,27.68-3.84,21.34,8.9,15.98,28.15-5.19,31.76,7.07,1.1,19.06-3.54,21.82-10.13C66.29,26.42,23.72,10.34,6.31,27.39c-8.79,8.61-7.34,21.13-2.03,30.54,13.46,23.85,48.68,20.93,58.93.16l-.3.27h0l-.3.26h0l-.3.26h0s-.31.26-.31.26h0s-.31.26-.31.26h0s-.31.26-.31.26h0l-.31.25h0s-.32.25-.32.25h0s-.32.25-.32.25h0s-.32.25-.32.25h0s-.32.25-.32.25h0s-.33.24-.33.24h0s-.33.24-.33.24h0s-.33.24-.33.24h0s-.33.24-.33.24h0s-.33.23-.33.23h0s-.33.23-.33.23h0s-.34.23-.34.23h0s-.34.23-.34.23h0s-.34.22-.34.22h0s-.34.22-.34.22h0s-.34.22-.34.22h0s-.34.22-.34.22h0C19.66,85.98-4.65,48.6,12.26,31.81Z"/><path class="uuid-dacdbce8-5f6e-4073-876a-c23f2096ae32" d="M72.26,8.21c0-4.53-3.68-8.21-8.21-8.21s-8.21,3.68-8.21,8.21,3.68,8.21,8.21,8.21,8.21-3.68,8.21-8.21Z"/></g></svg>